<?xml version="1.0" encoding="UTF-8"?>
<svg id="Layer_2" data-name="Layer 2" xmlns="http://www.w3.org/2000/svg" viewBox="0 0 351.4414 352.32">
  <defs>
    <style>
      .cls-1 {
        fill: #2f1c6a;
      }

      .cls-1, .cls-2 {
        stroke-width: 0px;
      }

      .cls-2 {
        fill: #673de6;
      }
    </style>
  </defs>
  <polygon class="cls-2" points="0 26.94384 0 13.47192 55.05915 13.47192 55.05915 0 137.64788 0 137.64788 76.73137 166.34893 76.73137 166.34893 72.04549 193.09212 72.04549 193.09212 104.26095 112.46125 104.26095 112.46125 27.52958 0 26.94384"/>
  <polygon class="cls-2" points="41.29436 148.48399 41.29436 72.48479 55.79132 72.48479 55.79132 110.48439 66.77387 110.48439 66.77387 148.48399 41.29436 148.48399"/>
  <polygon class="cls-2" points="41.29436 188.46045 66.77387 188.46045 66.77387 325.52259 158.58793 325.52259 158.58793 319.81167 183.18883 319.81167 183.18883 352.32 41.29436 352.32 41.29436 188.46045"/>
  <polygon class="cls-2" points="185.38534 275.00289 185.38534 281.44599 157.85576 281.44599 157.85576 248.64479 240.15162 248.64479 240.15162 325.37616 351.4414 325.37616 351.4414 340.31242 295.79651 340.31242 295.79651 352.32 212.32918 352.32 212.32918 275.58863 185.38534 275.00289"/>
  <polygon class="cls-2" points="296.08938 242.49456 282.03172 242.49456 282.03172 203.61636 311.02564 203.61636 311.02564 282.03172 296.52868 282.03172 296.08938 242.49456"/>
  <polygon class="cls-2" points="282.91032 164.00599 310.14703 164.00599 310.14703 0 165.17746 0 165.17746 34.85127 193.09212 34.85127 193.09212 26.94384 283.20319 26.94384 282.91032 164.00599"/>
  <polygon class="cls-1" points="35.72988 236.63721 26.3581 236.63721 26.3581 352.32 13.47192 352.32 13.47192 296.08938 .29287 296.08938 .29287 209.10763 35.72988 209.10763 35.72988 236.63721"/>
  <polygon class="cls-1" points="207.05756 312.78284 73.80269 312.78284 73.80269 300.48239 117.73287 300.48239 117.73287 286.42474 207.05756 286.42474 207.05756 312.78284"/>
  <polygon class="cls-1" points="276.7601 114.21845 276.7601 143.21237 270.17057 143.21237 270.17057 171.32768 351.4414 171.32768 351.4414 312.78284 244.25177 312.78284 244.25177 289.06055 324.20469 289.06055 324.20469 198.12509 244.25177 198.12509 244.25177 114.21845 276.7601 114.21845"/>
  <polygon class="cls-1" points="323.76539 0 323.76539 114.21845 317.17586 114.21845 317.17586 142.77307 351.4414 142.77307 351.4414 59.30574 334.30863 59.30574 334.30863 0 323.76539 0"/>
  <polygon class="cls-1" points="143.21237 37.34065 143.21237 65.01666 234.58713 65.01666 234.58713 52.13047 277.6387 52.13047 277.6387 37.34065 143.21237 37.34065"/>
  <polygon class="cls-1" points="106.75032 37.34065 106.75032 65.01666 26.79741 65.01666 26.79741 155.95212 106.75032 155.95212 106.75032 236.78364 72.48479 236.78364 72.48479 211.30414 82.58873 211.30414 82.58873 182.31022 .29287 182.31022 .29287 37.34065 106.75032 37.34065"/>
  <path class="cls-1" d="m142.0409,137.06214v74.6813s2.63581,14.35052,15.81486,14.35052h35.23636s14.55117-3.22155,14.55117-14.35052v-74.6813h-18.45067v67.94534s0,3.07511-3.22155,3.07511h-19.76858s-2.78224-.29287-2.78224-2.92868v-68.09177h-21.37935Z"/>
</svg>